<svg width="169" height="57" viewBox="0 0 169 57" fill="none" xmlns="http://www.w3.org/2000/svg">
<g clip-path="url(#clip0_124666_2229)">
<path d="M2.64358 15H0V34.0926H2.64358V27.0094C2.64358 25.8111 2.94163 24.8658 3.53774 24.2001C4.13384 23.5344 4.95024 23.1882 5.96102 23.1882C6.82926 23.1882 7.55495 23.5078 8.13809 24.1202C8.72123 24.746 9.01929 25.5315 9.01929 26.4769V34.1059H11.6758V26.4769C11.6758 24.7194 11.1964 23.3347 10.2374 22.2962C9.27846 21.2577 8.02146 20.7384 6.49233 20.7384C6.05173 20.7384 5.61114 20.7917 5.1835 20.9115C4.7429 21.0313 4.39301 21.1645 4.10792 21.3109C3.82283 21.4574 3.5507 21.6172 3.30448 21.8036C3.05826 21.99 2.8898 22.1231 2.81205 22.203C2.73429 22.2829 2.6695 22.3361 2.64358 22.3761V15Z" fill="#F0145A"/>
<path d="M17.5856 15H14.8604V34.0767H17.5856V15Z" fill="white"/>
<path d="M33.6598 28.4896L33.796 27.127C33.796 25.3011 33.1965 23.7749 31.9701 22.5486C30.7438 21.3222 29.2176 20.7227 27.3917 20.7227C25.5658 20.7227 23.9851 21.3767 22.677 22.6848C21.3689 23.993 20.7148 25.5463 20.7148 27.3995C20.7148 29.3072 21.3962 30.9423 22.7315 32.305C24.0669 33.6676 25.6748 34.3489 27.528 34.3489C28.2365 34.3489 28.8906 34.2399 29.5446 34.0491C30.1987 33.8311 30.7438 33.6131 31.1253 33.3951C31.5341 33.1498 31.9429 32.8773 32.2971 32.5775C32.6514 32.2777 32.8967 32.0597 33.0057 31.9234C33.1147 31.7872 33.1965 31.7054 33.251 31.6236L31.4796 29.8522L31.0708 30.37C30.7983 30.6971 30.335 31.0241 29.6809 31.3784C28.9996 31.7327 28.291 31.8962 27.528 31.8962C26.4651 31.8962 25.5658 31.5691 24.8027 30.8878C24.0396 30.2065 23.5764 29.4162 23.4401 28.4896H33.6598ZM27.3917 23.0391C28.4 23.0391 29.2176 23.3389 29.8989 23.9112C30.553 24.5108 30.9618 25.2466 31.1253 26.1732H23.5491C23.7944 25.2466 24.2304 24.5108 24.9117 23.9112C25.5658 23.3389 26.4106 23.0391 27.3917 23.0391Z" fill="white"/>
<path d="M46.3695 33.286C46.3695 34.4852 46.0153 35.4662 45.2794 36.2293C44.5709 36.9651 43.6715 37.3467 42.5542 37.3467C42.0637 37.3467 41.5731 37.2649 41.1098 37.1286C40.6465 36.9924 40.2922 36.8289 39.9925 36.6381C39.6927 36.4473 39.4202 36.2566 39.1476 36.0113C38.9024 35.766 38.7389 35.6025 38.6571 35.5207C38.5753 35.439 38.5208 35.3572 38.4663 35.3027L36.6949 37.0741L36.9129 37.3467C37.0492 37.5374 37.2945 37.7827 37.6215 38.0552C37.9485 38.3005 38.3301 38.573 38.7661 38.8455C39.2021 39.0908 39.7472 39.3088 40.4285 39.4996C41.1098 39.6904 41.8184 39.7994 42.5542 39.7994C44.4074 39.7994 45.9335 39.1726 47.2144 37.919C48.468 36.6381 49.0948 35.112 49.0948 33.2588V20.9952H46.3695V22.3578L45.9062 21.949C45.6065 21.6765 45.1432 21.404 44.4891 21.1314C43.8351 20.8589 43.1265 20.7227 42.4179 20.7227C40.7555 20.7227 39.3384 21.3495 38.112 22.6303C36.8857 23.9112 36.2861 25.4373 36.2861 27.2632C36.2861 29.0892 36.8857 30.6153 38.112 31.8962C39.3384 33.177 40.7555 33.8038 42.4179 33.8038C42.8812 33.8038 43.3173 33.7493 43.7806 33.6403C44.2166 33.5041 44.5709 33.3678 44.8707 33.2315C45.1704 33.0953 45.443 32.9318 45.6882 32.741C45.9335 32.5502 46.1243 32.414 46.1788 32.3595L46.3695 32.1687V33.286ZM39.0114 27.2632C39.0114 26.1186 39.3657 25.1648 40.1015 24.3745C40.8373 23.5842 41.7094 23.1754 42.6905 23.1754C43.6715 23.1754 44.5436 23.5842 45.2794 24.3745C45.988 25.1648 46.3695 26.1186 46.3695 27.2632C46.3695 28.4079 45.988 29.3617 45.2794 30.152C44.5436 30.9423 43.6715 31.3511 42.6905 31.3511C41.7094 31.3511 40.8373 30.9423 40.1015 30.152C39.3657 29.3617 39.0114 28.4079 39.0114 27.2632Z" fill="white"/>
<path d="M63.3195 34.0764V25.6281C63.3195 24.2382 62.8017 23.0664 61.7934 22.1398C60.7851 21.1859 59.4769 20.7227 57.869 20.7227C57.2422 20.7227 56.6154 20.8044 56.0159 20.9679C55.4163 21.1587 54.9258 21.3495 54.5715 21.5675C54.2172 21.7855 53.8629 22.0308 53.5359 22.3306C53.2089 22.6031 53.0181 22.7938 52.9091 22.9029C52.8273 23.0119 52.7456 23.0936 52.6911 23.1754L54.4625 24.9468L54.8168 24.4835C55.0348 24.1837 55.4163 23.9112 55.9886 23.6114C56.5609 23.3116 57.1877 23.1754 57.869 23.1754C58.6594 23.1754 59.3134 23.4207 59.8312 23.8839C60.349 24.3472 60.5943 24.9468 60.5943 25.6281L55.8251 26.4457C54.6533 26.6364 53.6994 27.0997 53.0454 27.8356C52.364 28.5714 52.0098 29.4707 52.0098 30.5335C52.0098 31.5419 52.4458 32.414 53.3179 33.177C54.2172 33.9674 55.3073 34.3489 56.6427 34.3489C57.106 34.3489 57.542 34.2944 57.9781 34.1581C58.4413 34.0491 58.7956 33.9129 59.0954 33.7766C59.3952 33.6403 59.6677 33.4768 59.913 33.286C60.1582 33.0953 60.3218 32.959 60.4308 32.9045C60.5125 32.8228 60.567 32.741 60.5943 32.7137V34.0764H63.3195ZM57.0515 31.8962C56.3429 31.8962 55.7706 31.7327 55.3618 31.4056C54.9258 31.0786 54.735 30.6971 54.735 30.261C54.735 29.7977 54.8713 29.3889 55.1711 29.0892C55.4708 28.7894 55.8796 28.5714 56.3702 28.4896L60.5943 27.8083V28.0808C60.5943 29.3072 60.2945 30.2338 59.6677 30.9151C59.0409 31.5691 58.1688 31.8962 57.0515 31.8962Z" fill="white"/>
<path d="M69.3337 15H66.6084V34.0767H69.3337V15Z" fill="white"/>
<path d="M0 43.3308H0.852878V46.3211H2.70078V47.016H0V43.3308Z" fill="white"/>
<path d="M8.26752 46.2263H6.5565L6.23009 47.016H5.35615L6.99873 43.3308H7.84108L9.48893 47.016H8.59393L8.26752 46.2263ZM7.99902 45.5788L7.41464 44.1678L6.83026 45.5788H7.99902Z" fill="white"/>
<path d="M17.8731 43.3308L16.6675 47.016H15.7515L14.9407 44.5206L14.1036 47.016H13.1928L11.982 43.3308H12.8664L13.6982 45.921L14.5669 43.3308H15.3566L16.199 45.942L17.0571 43.3308H17.8731Z" fill="white"/>
<path d="M26.9457 47.0792C26.5702 47.0792 26.2297 46.9985 25.9244 46.837C25.6225 46.6721 25.3838 46.4457 25.2084 46.1579C25.0364 45.8666 24.9504 45.5384 24.9504 45.1734C24.9504 44.8084 25.0364 44.482 25.2084 44.1942C25.3838 43.9028 25.6225 43.6765 25.9244 43.515C26.2297 43.3501 26.5719 43.2676 26.951 43.2676C27.2704 43.2676 27.5582 43.3237 27.8144 43.436C28.0741 43.5484 28.2917 43.7098 28.4672 43.9204L27.9197 44.4258C27.6705 44.138 27.3616 43.9941 26.9931 43.9941C26.7649 43.9941 26.5614 44.045 26.3824 44.1468C26.2034 44.2451 26.063 44.3837 25.9612 44.5627C25.8629 44.7417 25.8138 44.9453 25.8138 45.1734C25.8138 45.4015 25.8629 45.6051 25.9612 45.7841C26.063 45.9631 26.2034 46.1035 26.3824 46.2053C26.5614 46.3035 26.7649 46.3527 26.9931 46.3527C27.3616 46.3527 27.6705 46.207 27.9197 45.9157L28.4672 46.4211C28.2917 46.6352 28.0741 46.7984 27.8144 46.9107C27.5547 47.0231 27.2651 47.0792 26.9457 47.0792Z" fill="white"/>
<path d="M33.3831 47.0792C33.0005 47.0792 32.6548 46.9967 32.3459 46.8318C32.0406 46.6668 31.8002 46.4404 31.6247 46.1526C31.4527 45.8613 31.3667 45.5349 31.3667 45.1734C31.3667 44.8119 31.4527 44.4872 31.6247 44.1994C31.8002 43.9081 32.0406 43.68 32.3459 43.515C32.6548 43.3501 33.0005 43.2676 33.3831 43.2676C33.7657 43.2676 34.1096 43.3501 34.415 43.515C34.7203 43.68 34.9607 43.9081 35.1362 44.1994C35.3117 44.4872 35.3995 44.8119 35.3995 45.1734C35.3995 45.5349 35.3117 45.8613 35.1362 46.1526C34.9607 46.4404 34.7203 46.6668 34.415 46.8318C34.1096 46.9967 33.7657 47.0792 33.3831 47.0792ZM33.3831 46.3527C33.6007 46.3527 33.7972 46.3035 33.9727 46.2053C34.1482 46.1035 34.2851 45.9631 34.3834 45.7841C34.4852 45.6051 34.5361 45.4015 34.5361 45.1734C34.5361 44.9453 34.4852 44.7417 34.3834 44.5627C34.2851 44.3837 34.1482 44.2451 33.9727 44.1468C33.7972 44.045 33.6007 43.9941 33.3831 43.9941C33.1655 43.9941 32.9689 44.045 32.7934 44.1468C32.618 44.2451 32.4793 44.3837 32.3775 44.5627C32.2793 44.7417 32.2301 44.9453 32.2301 45.1734C32.2301 45.4015 32.2793 45.6051 32.3775 45.7841C32.4793 45.9631 32.618 46.1035 32.7934 46.2053C32.9689 46.3035 33.1655 46.3527 33.3831 46.3527Z" fill="white"/>
<path d="M42.0264 47.016L42.0211 44.8049L40.9366 46.6264H40.5523L39.473 44.8522V47.016H38.6728V43.3308H39.3782L40.7576 45.6209L42.1159 43.3308H42.8161L42.8266 47.016H42.0264Z" fill="white"/>
<path d="M47.9285 43.3308C48.2549 43.3308 48.5374 43.3852 48.7761 43.494C49.0183 43.6028 49.2043 43.7572 49.3342 43.9573C49.464 44.1573 49.529 44.3942 49.529 44.668C49.529 44.9382 49.464 45.1751 49.3342 45.3787C49.2043 45.5788 49.0183 45.7332 48.7761 45.842C48.5374 45.9473 48.2549 45.9999 47.9285 45.9999H47.1862V47.016H46.3333V43.3308H47.9285ZM47.8811 45.305C48.1373 45.305 48.3321 45.2506 48.4655 45.1418C48.5989 45.0295 48.6656 44.8716 48.6656 44.668C48.6656 44.4609 48.5989 44.303 48.4655 44.1942C48.3321 44.0818 48.1373 44.0257 47.8811 44.0257H47.1862V45.305H47.8811Z" fill="white"/>
<path d="M55.0121 46.2263H53.3011L52.9747 47.016H52.1008L53.7433 43.3308H54.5857L56.2335 47.016H55.3385L55.0121 46.2263ZM54.7436 45.5788L54.1592 44.1678L53.5749 45.5788H54.7436Z" fill="white"/>
<path d="M62.6281 43.3308V47.016H61.9279L60.0906 44.7785V47.016H59.2482V43.3308H59.9537L61.7858 45.5682V43.3308H62.6281Z" fill="white"/>
<path d="M67.9013 45.7104V47.016H67.0485V45.6999L65.6217 43.3308H66.5273L67.5117 44.9681L68.4963 43.3308H69.3333L67.9013 45.7104Z" fill="white"/>
<path fill-rule="evenodd" clip-rule="evenodd" d="M81.7283 15H84.9505L76.5557 41H73.3335L81.7283 15Z" fill="#F0145A"/>
<path d="M93.7502 34.1C92.8969 34.1 92.0769 33.98 91.2902 33.74C90.5169 33.4867 89.9102 33.1733 89.4702 32.8L90.1102 31.68C90.5502 32.0267 91.1035 32.3133 91.7702 32.54C92.4369 32.7533 93.1302 32.86 93.8502 32.86C94.8102 32.86 95.5169 32.7133 95.9702 32.42C96.4369 32.1133 96.6702 31.6867 96.6702 31.14C96.6702 30.7533 96.5435 30.4533 96.2902 30.24C96.0369 30.0133 95.7169 29.8467 95.3302 29.74C94.9435 29.62 94.4302 29.5067 93.7902 29.4C92.9369 29.24 92.2502 29.08 91.7302 28.92C91.2102 28.7467 90.7635 28.46 90.3902 28.06C90.0302 27.66 89.8502 27.1067 89.8502 26.4C89.8502 25.52 90.2169 24.8 90.9502 24.24C91.6835 23.68 92.7035 23.4 94.0102 23.4C94.6902 23.4 95.3702 23.4933 96.0502 23.68C96.7302 23.8533 97.2902 24.0867 97.7302 24.38L97.1102 25.52C96.2435 24.92 95.2102 24.62 94.0102 24.62C93.1035 24.62 92.4169 24.78 91.9502 25.1C91.4969 25.42 91.2702 25.84 91.2702 26.36C91.2702 26.76 91.3969 27.08 91.6502 27.32C91.9169 27.56 92.2435 27.74 92.6302 27.86C93.0169 27.9667 93.5502 28.08 94.2302 28.2C95.0702 28.36 95.7435 28.52 96.2502 28.68C96.7569 28.84 97.1902 29.1133 97.5502 29.5C97.9102 29.8867 98.0902 30.42 98.0902 31.1C98.0902 32.02 97.7035 32.7533 96.9302 33.3C96.1702 33.8333 95.1102 34.1 93.7502 34.1ZM109.875 29.18H101.075C101.155 30.2733 101.575 31.16 102.335 31.84C103.095 32.5067 104.055 32.84 105.215 32.84C105.869 32.84 106.469 32.7267 107.015 32.5C107.562 32.26 108.035 31.9133 108.435 31.46L109.235 32.38C108.769 32.94 108.182 33.3667 107.475 33.66C106.782 33.9533 106.015 34.1 105.175 34.1C104.095 34.1 103.135 33.8733 102.295 33.42C101.469 32.9533 100.822 32.3133 100.355 31.5C99.8887 30.6867 99.6554 29.7667 99.6554 28.74C99.6554 27.7133 99.8754 26.7933 100.315 25.98C100.769 25.1667 101.382 24.5333 102.155 24.08C102.942 23.6267 103.822 23.4 104.795 23.4C105.769 23.4 106.642 23.6267 107.415 24.08C108.189 24.5333 108.795 25.1667 109.235 25.98C109.675 26.78 109.895 27.7 109.895 28.74L109.875 29.18ZM104.795 24.62C103.782 24.62 102.929 24.9467 102.235 25.6C101.555 26.24 101.169 27.08 101.075 28.12H108.535C108.442 27.08 108.049 26.24 107.355 25.6C106.675 24.9467 105.822 24.62 104.795 24.62ZM114.146 25.54C114.479 24.8333 114.972 24.3 115.626 23.94C116.292 23.58 117.112 23.4 118.086 23.4V24.78L117.746 24.76C116.639 24.76 115.772 25.1 115.146 25.78C114.519 26.46 114.206 27.4133 114.206 28.64V34H112.786V23.48H114.146V25.54ZM129.946 23.48L125.266 34H123.806L119.146 23.48H120.626L124.566 32.44L128.546 23.48H129.946ZM131.946 23.48H133.366V34H131.946V23.48ZM132.666 21.18C132.372 21.18 132.126 21.08 131.926 20.88C131.726 20.68 131.626 20.44 131.626 20.16C131.626 19.8933 131.726 19.66 131.926 19.46C132.126 19.26 132.372 19.16 132.666 19.16C132.959 19.16 133.206 19.26 133.406 19.46C133.606 19.6467 133.706 19.8733 133.706 20.14C133.706 20.4333 133.606 20.68 133.406 20.88C133.206 21.08 132.959 21.18 132.666 21.18ZM141.677 34.1C140.637 34.1 139.704 33.8733 138.877 33.42C138.064 32.9667 137.424 32.3333 136.957 31.52C136.49 30.6933 136.257 29.7667 136.257 28.74C136.257 27.7133 136.49 26.7933 136.957 25.98C137.424 25.1667 138.064 24.5333 138.877 24.08C139.704 23.6267 140.637 23.4 141.677 23.4C142.584 23.4 143.39 23.58 144.097 23.94C144.817 24.2867 145.384 24.8 145.797 25.48L144.737 26.2C144.39 25.68 143.95 25.2933 143.417 25.04C142.884 24.7733 142.304 24.64 141.677 24.64C140.917 24.64 140.23 24.8133 139.617 25.16C139.017 25.4933 138.544 25.9733 138.197 26.6C137.864 27.2267 137.697 27.94 137.697 28.74C137.697 29.5533 137.864 30.2733 138.197 30.9C138.544 31.5133 139.017 31.9933 139.617 32.34C140.23 32.6733 140.917 32.84 141.677 32.84C142.304 32.84 142.884 32.7133 143.417 32.46C143.95 32.2067 144.39 31.82 144.737 31.3L145.797 32.02C145.384 32.7 144.817 33.22 144.097 33.58C143.377 33.9267 142.57 34.1 141.677 34.1ZM157.571 29.18H148.771C148.851 30.2733 149.271 31.16 150.031 31.84C150.791 32.5067 151.751 32.84 152.911 32.84C153.564 32.84 154.164 32.7267 154.711 32.5C155.257 32.26 155.731 31.9133 156.131 31.46L156.931 32.38C156.464 32.94 155.877 33.3667 155.171 33.66C154.477 33.9533 153.711 34.1 152.871 34.1C151.791 34.1 150.831 33.8733 149.991 33.42C149.164 32.9533 148.517 32.3133 148.051 31.5C147.584 30.6867 147.351 29.7667 147.351 28.74C147.351 27.7133 147.571 26.7933 148.011 25.98C148.464 25.1667 149.077 24.5333 149.851 24.08C150.637 23.6267 151.517 23.4 152.491 23.4C153.464 23.4 154.337 23.6267 155.111 24.08C155.884 24.5333 156.491 25.1667 156.931 25.98C157.371 26.78 157.591 27.7 157.591 28.74L157.571 29.18ZM152.491 24.62C151.477 24.62 150.624 24.9467 149.931 25.6C149.251 26.24 148.864 27.08 148.771 28.12H156.231C156.137 27.08 155.744 26.24 155.051 25.6C154.371 24.9467 153.517 24.62 152.491 24.62ZM163.301 34.1C162.448 34.1 161.628 33.98 160.841 33.74C160.068 33.4867 159.461 33.1733 159.021 32.8L159.661 31.68C160.101 32.0267 160.654 32.3133 161.321 32.54C161.988 32.7533 162.681 32.86 163.401 32.86C164.361 32.86 165.068 32.7133 165.521 32.42C165.988 32.1133 166.221 31.6867 166.221 31.14C166.221 30.7533 166.094 30.4533 165.841 30.24C165.588 30.0133 165.268 29.8467 164.881 29.74C164.494 29.62 163.981 29.5067 163.341 29.4C162.488 29.24 161.801 29.08 161.281 28.92C160.761 28.7467 160.314 28.46 159.941 28.06C159.581 27.66 159.401 27.1067 159.401 26.4C159.401 25.52 159.768 24.8 160.501 24.24C161.234 23.68 162.254 23.4 163.561 23.4C164.241 23.4 164.921 23.4933 165.601 23.68C166.281 23.8533 166.841 24.0867 167.281 24.38L166.661 25.52C165.794 24.92 164.761 24.62 163.561 24.62C162.654 24.62 161.968 24.78 161.501 25.1C161.048 25.42 160.821 25.84 160.821 26.36C160.821 26.76 160.948 27.08 161.201 27.32C161.468 27.56 161.794 27.74 162.181 27.86C162.568 27.9667 163.101 28.08 163.781 28.2C164.621 28.36 165.294 28.52 165.801 28.68C166.308 28.84 166.741 29.1133 167.101 29.5C167.461 29.8867 167.641 30.42 167.641 31.1C167.641 32.02 167.254 32.7533 166.481 33.3C165.721 33.8333 164.661 34.1 163.301 34.1Z" fill="white"/>
</g>
<defs>
<clipPath id="clip0_124666_2229">
<rect width="168.95" height="57" fill="white"/>
</clipPath>
</defs>
</svg>
