<svg width="382" height="60" viewBox="0 0 382 60" fill="none" xmlns="http://www.w3.org/2000/svg">
<g clip-path="url(#clip0_124216_505)">
<path d="M4.95672 0H0V35.7986H4.95672V22.5177C4.95672 20.2709 5.51557 18.4984 6.63326 17.2502C7.75095 16.002 9.2817 15.353 11.1769 15.353C12.8049 15.353 14.1655 15.9521 15.2589 17.1004C16.3523 18.2738 16.9112 19.7466 16.9112 21.5191V35.8236H21.8922V21.5191C21.8922 18.2238 20.9932 15.6276 19.1951 13.6804C17.3971 11.7332 15.0402 10.7596 12.1731 10.7596C11.347 10.7596 10.5209 10.8594 9.71906 11.0841C8.89294 11.3088 8.2369 11.5584 7.70235 11.833C7.16781 12.1076 6.65756 12.4072 6.1959 12.7567C5.73424 13.1062 5.41838 13.3558 5.27259 13.5056C5.1268 13.6554 5.00532 13.7552 4.95672 13.8301V0Z" fill="#F0145A"/>
<path d="M32.9727 0H27.8628V35.7689H32.9727V0Z" fill="#323264"/>
<path d="M63.1115 25.2935L63.367 22.7386C63.367 19.315 62.2428 16.4535 59.9434 14.1541C57.6439 11.8546 54.7824 10.7305 51.3588 10.7305C47.9352 10.7305 44.9715 11.9568 42.5188 14.4096C40.0661 16.8623 38.8397 19.7749 38.8397 23.2496C38.8397 26.8265 40.1172 29.8924 42.621 32.4473C45.1248 35.0022 48.1396 36.2797 51.6143 36.2797C52.9429 36.2797 54.1692 36.0753 55.3956 35.7176C56.622 35.3088 57.6439 34.9 58.3593 34.4912C59.1258 34.0313 59.8923 33.5204 60.5565 32.9583C61.2208 32.3962 61.6807 31.9874 61.8851 31.7319C62.0895 31.4764 62.2428 31.3231 62.345 31.1698L59.0236 27.8484L58.2571 28.8193C57.7461 29.4325 56.8775 30.0457 55.6511 30.7099C54.3736 31.3742 53.0451 31.6808 51.6143 31.6808C49.6215 31.6808 47.9352 31.0676 46.5045 29.7902C45.0737 28.5127 44.2051 27.0309 43.9496 25.2935H63.1115ZM51.3588 15.0738C53.2495 15.0738 54.7824 15.6359 56.0599 16.709C57.2862 17.8331 58.0527 19.2128 58.3593 20.9501H44.154C44.6138 19.2128 45.4314 17.8331 46.7089 16.709C47.9352 15.6359 49.5193 15.0738 51.3588 15.0738Z" fill="#323264"/>
<path d="M86.9429 34.2868C86.9429 36.5351 86.2786 38.3747 84.899 39.8054C83.5704 41.1851 81.8842 41.9005 79.7891 41.9005C78.8694 41.9005 77.9496 41.7472 77.0809 41.4917C76.2122 41.2362 75.548 40.9296 74.9859 40.5719C74.4238 40.2142 73.9128 39.8565 73.4018 39.3967C72.9419 38.9368 72.6354 38.6302 72.4821 38.4769C72.3288 38.3236 72.2266 38.1703 72.1244 38.0681L68.803 41.3895L69.2118 41.9005C69.4673 42.2582 69.9271 42.718 70.5403 43.229C71.1535 43.6889 71.8689 44.1999 72.6865 44.7109C73.504 45.1708 74.526 45.5796 75.8035 45.9372C77.0809 46.2949 78.4095 46.4993 79.7891 46.4993C83.2638 46.4993 86.1253 45.3241 88.5269 42.9735C90.8775 40.5719 92.0527 37.7104 92.0527 34.2357V11.2415H86.9429V13.7964L86.0742 13.0299C85.5121 12.5189 84.6435 12.0079 83.4171 11.4969C82.1907 10.986 80.8622 10.7305 79.5336 10.7305C76.4166 10.7305 73.7595 11.9057 71.4601 14.3074C69.1607 16.709 68.0365 19.5705 68.0365 22.9941C68.0365 26.4177 69.1607 29.2792 71.4601 31.6808C73.7595 34.0824 76.4166 35.2577 79.5336 35.2577C80.4023 35.2577 81.2199 35.1555 82.0885 34.9511C82.9061 34.6956 83.5704 34.4401 84.1325 34.1846C84.6946 33.9291 85.2055 33.6225 85.6654 33.2648C86.1253 32.9072 86.483 32.6517 86.5852 32.5495L86.9429 32.1918V34.2868ZM73.1463 22.9941C73.1463 20.8479 73.8106 19.0595 75.1903 17.5777C76.5699 16.0958 78.2051 15.3293 80.0446 15.3293C81.8842 15.3293 83.5193 16.0958 84.899 17.5777C86.2275 19.0595 86.9429 20.8479 86.9429 22.9941C86.9429 25.1402 86.2275 26.9287 84.899 28.4105C83.5193 29.8924 81.8842 30.6588 80.0446 30.6588C78.2051 30.6588 76.5699 29.8924 75.1903 28.4105C73.8106 26.9287 73.1463 25.1402 73.1463 22.9941Z" fill="#323264"/>
<path d="M118.724 35.7687V19.9282C118.724 17.3222 117.753 15.1249 115.863 13.3876C113.972 11.5991 111.519 10.7305 108.504 10.7305C107.329 10.7305 106.154 10.8838 105.03 11.1904C103.906 11.548 102.986 11.9057 102.322 12.3145C101.657 12.7233 100.993 13.1832 100.38 13.7453C99.7666 14.2563 99.409 14.6139 99.2046 14.8183C99.0513 15.0227 98.898 15.176 98.7958 15.3293L102.117 18.6507L102.781 17.782C103.19 17.22 103.906 16.709 104.979 16.1469C106.052 15.5848 107.227 15.3293 108.504 15.3293C109.986 15.3293 111.213 15.7892 112.184 16.6579C113.154 17.5266 113.614 18.6507 113.614 19.9282L104.672 21.4611C102.475 21.8188 100.686 22.6875 99.46 24.0672C98.1826 25.4468 97.5183 27.1331 97.5183 29.1259C97.5183 31.0165 98.3359 32.6517 99.971 34.0824C101.657 35.5643 103.701 36.2797 106.205 36.2797C107.074 36.2797 107.891 36.1775 108.709 35.922C109.578 35.7176 110.242 35.4621 110.804 35.2066C111.366 34.9511 111.877 34.6445 112.337 34.2868C112.797 33.9291 113.103 33.6736 113.308 33.5715C113.461 33.4182 113.563 33.2649 113.614 33.2138V35.7687H118.724ZM106.972 31.6808C105.643 31.6808 104.57 31.3742 103.803 30.761C102.986 30.1479 102.628 29.4325 102.628 28.6149C102.628 27.7462 102.884 26.9798 103.446 26.4177C104.008 25.8556 104.774 25.4468 105.694 25.2935L113.614 24.0161V24.527C113.614 26.8265 113.052 28.5638 111.877 29.8413C110.702 31.0676 109.067 31.6808 106.972 31.6808Z" fill="#323264"/>
<path d="M130 0H124.89V35.7689H130V0Z" fill="#323264"/>
<path d="M0 53.1185H1.59915V58.7253H5.06396V60.0283H0V53.1185Z" fill="#323264"/>
<path d="M15.5016 58.5477H12.2934L11.6814 60.0283H10.0428L13.1226 53.1185H14.702L17.7917 60.0283H16.1136L15.5016 58.5477ZM14.9982 57.3335L13.9025 54.688L12.8067 57.3335H14.9982Z" fill="#323264"/>
<path d="M33.5121 53.1185L31.2516 60.0283H29.534L28.0138 55.3494L26.4443 60.0283H24.7366L22.4662 53.1185H24.1245L25.6842 57.9751L27.313 53.1185H28.7937L30.3731 58.0146L31.9821 53.1185H33.5121Z" fill="#323264"/>
<path d="M50.5232 60.1468C49.819 60.1468 49.1807 59.9954 48.6082 59.6927C48.0422 59.3834 47.5947 58.959 47.2657 58.4193C46.9432 57.8731 46.782 57.2578 46.782 56.5734C46.782 55.889 46.9432 55.277 47.2657 54.7373C47.5947 54.1911 48.0422 53.7667 48.6082 53.464C49.1807 53.1547 49.8223 53 50.5331 53C51.1319 53 51.6716 53.1053 52.152 53.3159C52.6389 53.5265 53.047 53.8292 53.376 54.224L52.3494 55.1717C51.8821 54.6321 51.303 54.3622 50.612 54.3622C50.1843 54.3622 49.8026 54.4577 49.467 54.6485C49.1313 54.8328 48.8681 55.0927 48.6773 55.4283C48.493 55.764 48.4009 56.1456 48.4009 56.5734C48.4009 57.0012 48.493 57.3828 48.6773 57.7185C48.8681 58.0541 49.1313 58.3173 49.467 58.5082C49.8026 58.6924 50.1843 58.7846 50.612 58.7846C51.303 58.7846 51.8821 58.5115 52.3494 57.9653L53.376 58.9129C53.047 59.3143 52.6389 59.6203 52.152 59.8309C51.665 60.0415 51.1221 60.1468 50.5232 60.1468Z" fill="#323264"/>
<path d="M62.5933 60.1468C61.876 60.1468 61.2278 59.9922 60.6487 59.6829C60.0761 59.3736 59.6253 58.9491 59.2963 58.4095C58.9738 57.8632 58.8126 57.2512 58.8126 56.5734C58.8126 55.8956 58.9738 55.2868 59.2963 54.7472C59.6253 54.201 60.0761 53.7733 60.6487 53.464C61.2278 53.1547 61.876 53 62.5933 53C63.3106 53 63.9555 53.1547 64.5281 53.464C65.1006 53.7733 65.5514 54.201 65.8804 54.7472C66.2095 55.2868 66.374 55.8956 66.374 56.5734C66.374 57.2512 66.2095 57.8632 65.8804 58.4095C65.5514 58.9491 65.1006 59.3736 64.5281 59.6829C63.9555 59.9922 63.3106 60.1468 62.5933 60.1468ZM62.5933 58.7846C63.0013 58.7846 63.3698 58.6924 63.6989 58.5082C64.0279 58.3173 64.2846 58.0541 64.4688 57.7185C64.6597 57.3828 64.7551 57.0012 64.7551 56.5734C64.7551 56.1456 64.6597 55.764 64.4688 55.4283C64.2846 55.0927 64.0279 54.8328 63.6989 54.6485C63.3698 54.4577 63.0013 54.3622 62.5933 54.3622C62.1853 54.3622 61.8168 54.4577 61.4877 54.6485C61.1587 54.8328 60.8987 55.0927 60.7079 55.4283C60.5236 55.764 60.4315 56.1456 60.4315 56.5734C60.4315 57.0012 60.5236 57.3828 60.7079 57.7185C60.8987 58.0541 61.1587 58.3173 61.4877 58.5082C61.8168 58.6924 62.1853 58.7846 62.5933 58.7846Z" fill="#323264"/>
<path d="M78.7995 60.0283L78.7896 55.8824L76.7561 59.2979H76.0355L74.0119 55.9713V60.0283H72.5115V53.1185H73.8342L76.4205 57.4125L78.9673 53.1185H80.2802L80.2999 60.0283H78.7995Z" fill="#323264"/>
<path d="M89.8659 53.1185C90.478 53.1185 91.0077 53.2205 91.4552 53.4245C91.9093 53.6285 92.2581 53.918 92.5016 54.2931C92.7451 54.6682 92.8668 55.1125 92.8668 55.6258C92.8668 56.1325 92.7451 56.5767 92.5016 56.9584C92.2581 57.3335 91.9093 57.623 91.4552 57.8271C91.0077 58.0245 90.478 58.1232 89.8659 58.1232H88.4741V60.0283H86.8749V53.1185H89.8659ZM89.7771 56.8202C90.2575 56.8202 90.6227 56.7182 90.8728 56.5142C91.1229 56.3036 91.2479 56.0074 91.2479 55.6258C91.2479 55.2375 91.1229 54.9414 90.8728 54.7373C90.6227 54.5268 90.2575 54.4215 89.7771 54.4215H88.4741V56.8202H89.7771Z" fill="#323264"/>
<path d="M103.148 58.5477H99.9396L99.3276 60.0283H97.6889L100.769 53.1185H102.348L105.438 60.0283H103.76L103.148 58.5477ZM102.644 57.3335L101.549 54.688L100.453 57.3335H102.644Z" fill="#323264"/>
<path d="M117.428 53.1185V60.0283H116.115L112.67 55.8331V60.0283H111.09V53.1185H112.413L115.848 57.3137V53.1185H117.428Z" fill="#323264"/>
<path d="M127.315 57.5803V60.0283H125.716V57.5605L123.041 53.1185H124.739L126.585 56.1884L128.43 53.1185H130L127.315 57.5803Z" fill="#323264"/>
<path fill-rule="evenodd" clip-rule="evenodd" d="M149.175 0H155L139.825 47H134L149.175 0Z" fill="#F0145A"/>
<path d="M172.32 35.18C170.688 35.18 169.212 34.808 167.892 34.064C166.572 33.296 165.516 32.204 164.724 30.788C163.956 29.348 163.572 27.596 163.572 25.532C163.572 23.468 163.956 21.728 164.724 20.312C165.492 18.872 166.536 17.78 167.856 17.036C169.176 16.292 170.664 15.92 172.32 15.92C174.12 15.92 175.728 16.328 177.144 17.144C178.584 17.936 179.712 19.064 180.528 20.528C181.344 21.968 181.752 23.636 181.752 25.532C181.752 27.452 181.344 29.132 180.528 30.572C179.712 32.012 178.584 33.14 177.144 33.956C175.728 34.772 174.12 35.18 172.32 35.18ZM162.564 41.984V16.1H165.012V21.788L164.76 25.568L165.12 29.384V41.984H162.564ZM172.14 32.912C173.484 32.912 174.684 32.612 175.74 32.012C176.796 31.388 177.636 30.524 178.26 29.42C178.884 28.292 179.196 26.996 179.196 25.532C179.196 24.068 178.884 22.784 178.26 21.68C177.636 20.576 176.796 19.712 175.74 19.088C174.684 18.464 173.484 18.152 172.14 18.152C170.796 18.152 169.584 18.464 168.504 19.088C167.448 19.712 166.608 20.576 165.984 21.68C165.384 22.784 165.084 24.068 165.084 25.532C165.084 26.996 165.384 28.292 165.984 29.42C166.608 30.524 167.448 31.388 168.504 32.012C169.584 32.612 170.796 32.912 172.14 32.912ZM194.774 35.18C193.166 35.18 191.762 34.88 190.562 34.28C189.362 33.68 188.426 32.78 187.754 31.58C187.106 30.38 186.782 28.88 186.782 27.08V16.1H189.338V26.792C189.338 28.808 189.83 30.332 190.814 31.364C191.822 32.372 193.226 32.876 195.026 32.876C196.346 32.876 197.486 32.612 198.446 32.084C199.43 31.532 200.174 30.74 200.678 29.708C201.206 28.676 201.47 27.44 201.47 26V16.1H204.026V35H201.578V29.816L201.974 30.752C201.374 32.144 200.438 33.236 199.166 34.028C197.918 34.796 196.454 35.18 194.774 35.18ZM220.906 35.18C219.25 35.18 217.762 34.808 216.442 34.064C215.122 33.296 214.078 32.192 213.31 30.752C212.542 29.312 212.158 27.572 212.158 25.532C212.158 23.468 212.542 21.728 213.31 20.312C214.102 18.872 215.158 17.78 216.478 17.036C217.798 16.292 219.274 15.92 220.906 15.92C222.706 15.92 224.314 16.328 225.73 17.144C227.17 17.936 228.298 19.052 229.114 20.492C229.93 21.932 230.338 23.612 230.338 25.532C230.338 27.428 229.93 29.108 229.114 30.572C228.298 32.012 227.17 33.14 225.73 33.956C224.314 34.772 222.706 35.18 220.906 35.18ZM211.15 35V8.288H213.706V21.68L213.346 25.496L213.598 29.312V35H211.15ZM220.726 32.912C222.07 32.912 223.27 32.612 224.326 32.012C225.382 31.388 226.222 30.524 226.846 29.42C227.47 28.292 227.782 26.996 227.782 25.532C227.782 24.044 227.47 22.748 226.846 21.644C226.222 20.54 225.382 19.688 224.326 19.088C223.27 18.464 222.07 18.152 220.726 18.152C219.382 18.152 218.17 18.464 217.09 19.088C216.034 19.688 215.194 20.54 214.57 21.644C213.97 22.748 213.67 24.044 213.67 25.532C213.67 26.996 213.97 28.292 214.57 29.42C215.194 30.524 216.034 31.388 217.09 32.012C218.17 32.612 219.382 32.912 220.726 32.912ZM235.548 35V8.288H238.104V35H235.548ZM245.216 35V16.1H247.772V35H245.216ZM246.512 11.924C245.984 11.924 245.54 11.744 245.18 11.384C244.82 11.024 244.64 10.592 244.64 10.088C244.64 9.584 244.82 9.164 245.18 8.828C245.54 8.468 245.984 8.288 246.512 8.288C247.04 8.288 247.484 8.456 247.844 8.792C248.204 9.128 248.384 9.548 248.384 10.052C248.384 10.58 248.204 11.024 247.844 11.384C247.508 11.744 247.064 11.924 246.512 11.924ZM262.732 35.18C260.86 35.18 259.18 34.772 257.692 33.956C256.228 33.116 255.076 31.976 254.236 30.536C253.396 29.072 252.976 27.404 252.976 25.532C252.976 23.636 253.396 21.968 254.236 20.528C255.076 19.088 256.228 17.96 257.692 17.144C259.18 16.328 260.86 15.92 262.732 15.92C264.34 15.92 265.792 16.232 267.088 16.856C268.384 17.48 269.404 18.416 270.148 19.664L268.24 20.96C267.592 20 266.788 19.292 265.828 18.836C264.868 18.38 263.824 18.152 262.696 18.152C261.352 18.152 260.14 18.464 259.06 19.088C257.98 19.688 257.128 20.54 256.504 21.644C255.88 22.748 255.568 24.044 255.568 25.532C255.568 27.02 255.88 28.316 256.504 29.42C257.128 30.524 257.98 31.388 259.06 32.012C260.14 32.612 261.352 32.912 262.696 32.912C263.824 32.912 264.868 32.684 265.828 32.228C266.788 31.772 267.592 31.076 268.24 30.14L270.148 31.436C269.404 32.66 268.384 33.596 267.088 34.244C265.792 34.868 264.34 35.18 262.732 35.18ZM287.013 35V30.824L286.905 30.14V23.156C286.905 21.548 286.449 20.312 285.537 19.448C284.649 18.584 283.317 18.152 281.541 18.152C280.317 18.152 279.153 18.356 278.049 18.764C276.945 19.172 276.009 19.712 275.241 20.384L274.089 18.476C275.049 17.66 276.201 17.036 277.545 16.604C278.889 16.148 280.305 15.92 281.793 15.92C284.241 15.92 286.125 16.532 287.445 17.756C288.789 18.956 289.461 20.792 289.461 23.264V35H287.013ZM280.497 35.18C279.081 35.18 277.845 34.952 276.789 34.496C275.757 34.016 274.965 33.368 274.413 32.552C273.861 31.712 273.585 30.752 273.585 29.672C273.585 28.688 273.813 27.8 274.269 27.008C274.749 26.192 275.517 25.544 276.573 25.064C277.653 24.56 279.093 24.308 280.893 24.308H287.409V26.216H280.965C279.141 26.216 277.869 26.54 277.149 27.188C276.453 27.836 276.105 28.64 276.105 29.6C276.105 30.68 276.525 31.544 277.365 32.192C278.205 32.84 279.381 33.164 280.893 33.164C282.333 33.164 283.569 32.84 284.601 32.192C285.657 31.52 286.425 30.56 286.905 29.312L287.481 31.076C287.001 32.324 286.161 33.32 284.961 34.064C283.785 34.808 282.297 35.18 280.497 35.18ZM302.38 35.18C300.604 35.18 299.236 34.7 298.276 33.74C297.316 32.78 296.836 31.424 296.836 29.672V11.924H299.392V29.528C299.392 30.632 299.668 31.484 300.22 32.084C300.796 32.684 301.612 32.984 302.668 32.984C303.796 32.984 304.732 32.66 305.476 32.012L306.376 33.848C305.872 34.304 305.26 34.64 304.54 34.856C303.844 35.072 303.124 35.18 302.38 35.18ZM293.452 18.224V16.1H305.152V18.224H293.452ZM311.029 35V16.1H313.585V35H311.029ZM312.325 11.924C311.797 11.924 311.353 11.744 310.993 11.384C310.633 11.024 310.453 10.592 310.453 10.088C310.453 9.584 310.633 9.164 310.993 8.828C311.353 8.468 311.797 8.288 312.325 8.288C312.853 8.288 313.297 8.456 313.657 8.792C314.017 9.128 314.197 9.548 314.197 10.052C314.197 10.58 314.017 11.024 313.657 11.384C313.321 11.744 312.877 11.924 312.325 11.924ZM328.401 35.18C326.577 35.18 324.933 34.772 323.469 33.956C322.029 33.116 320.889 31.976 320.049 30.536C319.209 29.072 318.789 27.404 318.789 25.532C318.789 23.636 319.209 21.968 320.049 20.528C320.889 19.088 322.029 17.96 323.469 17.144C324.909 16.328 326.553 15.92 328.401 15.92C330.273 15.92 331.929 16.328 333.369 17.144C334.833 17.96 335.973 19.088 336.789 20.528C337.629 21.968 338.049 23.636 338.049 25.532C338.049 27.404 337.629 29.072 336.789 30.536C335.973 31.976 334.833 33.116 333.369 33.956C331.905 34.772 330.249 35.18 328.401 35.18ZM328.401 32.912C329.769 32.912 330.981 32.612 332.037 32.012C333.093 31.388 333.921 30.524 334.521 29.42C335.145 28.292 335.457 26.996 335.457 25.532C335.457 24.044 335.145 22.748 334.521 21.644C333.921 20.54 333.093 19.688 332.037 19.088C330.981 18.464 329.781 18.152 328.437 18.152C327.093 18.152 325.893 18.464 324.837 19.088C323.781 19.688 322.941 20.54 322.317 21.644C321.693 22.748 321.381 24.044 321.381 25.532C321.381 26.996 321.693 28.292 322.317 29.42C322.941 30.524 323.781 31.388 324.837 32.012C325.893 32.612 327.081 32.912 328.401 32.912ZM352.915 15.92C354.451 15.92 355.795 16.22 356.947 16.82C358.123 17.396 359.035 18.284 359.683 19.484C360.355 20.684 360.691 22.196 360.691 24.02V35H358.135V24.272C358.135 22.28 357.631 20.78 356.623 19.772C355.639 18.74 354.247 18.224 352.447 18.224C351.103 18.224 349.927 18.5 348.919 19.052C347.935 19.58 347.167 20.36 346.615 21.392C346.087 22.4 345.823 23.624 345.823 25.064V35H343.267V16.1H345.715V21.284L345.319 20.312C345.919 18.944 346.879 17.876 348.199 17.108C349.519 16.316 351.091 15.92 352.915 15.92ZM372.671 35.18C371.111 35.18 369.635 34.964 368.243 34.532C366.851 34.076 365.759 33.512 364.967 32.84L366.119 30.824C366.887 31.4 367.871 31.904 369.071 32.336C370.271 32.744 371.531 32.948 372.851 32.948C374.651 32.948 375.947 32.672 376.739 32.12C377.531 31.544 377.927 30.788 377.927 29.852C377.927 29.156 377.699 28.616 377.243 28.232C376.811 27.824 376.235 27.524 375.515 27.332C374.795 27.116 373.991 26.936 373.103 26.792C372.215 26.648 371.327 26.48 370.439 26.288C369.575 26.096 368.783 25.82 368.063 25.46C367.343 25.076 366.755 24.56 366.299 23.912C365.867 23.264 365.651 22.4 365.651 21.32C365.651 20.288 365.939 19.364 366.515 18.548C367.091 17.732 367.931 17.096 369.035 16.64C370.163 16.16 371.531 15.92 373.139 15.92C374.363 15.92 375.587 16.088 376.811 16.424C378.035 16.736 379.043 17.156 379.835 17.684L378.719 19.736C377.879 19.16 376.979 18.752 376.019 18.512C375.059 18.248 374.099 18.116 373.139 18.116C371.435 18.116 370.175 18.416 369.359 19.016C368.567 19.592 368.171 20.336 368.171 21.248C368.171 21.968 368.387 22.532 368.819 22.94C369.275 23.348 369.863 23.672 370.583 23.912C371.327 24.128 372.131 24.308 372.995 24.452C373.883 24.596 374.759 24.776 375.623 24.992C376.511 25.184 377.315 25.46 378.035 25.82C378.779 26.156 379.367 26.648 379.799 27.296C380.255 27.92 380.483 28.748 380.483 29.78C380.483 30.884 380.171 31.844 379.547 32.66C378.947 33.452 378.059 34.076 376.883 34.532C375.731 34.964 374.327 35.18 372.671 35.18Z" fill="#323264"/>
</g>
<defs>
<clipPath id="clip0_124216_505">
<rect width="382" height="60" fill="white"/>
</clipPath>
</defs>
</svg>
